# xmcd
#
# Track frame offsets:
#	150
#	17427
#	35602
#	55087
#	71547
#	86582
#	104355
#	120112
#	140115
#	157332
#	175472
#	194945
#	211547
#	226540
#	244272
#	260000
#
# Disc length: 3735 seconds
#
# Revision: 1
# Processed by: cddbd v1.5.1PL2 Copyright (c) Steve Scherf et al.
# Submitted via: audiograbber 1.83.01
#
DISCID=df0e9510
DTITLE=McEntire, Reba - Sc2126
DYEAR=1900
DGENRE=Country
TTITLE0=Why Haven't I Heard From You
TTITLE1=Heart Is A Lonely Hunter, The
TTITLE2=I Won't Stand In Line
TTITLE3=And Still
TTITLE4=It's Your Call
TTITLE5=Til You Love Me
TTITLE6=They Asked About You
TTITLE7=Ring On Her Finger
TTITLE8=Why Haven't I Heard From You (Vocals)
TTITLE9=Heart Is A Lonely Hunter, The (Vocals)
TTITLE10=I Won't Stand In Line (Vocals)
TTITLE11=And Still (Vocals)
TTITLE12=It's Your Call (Vocals)
TTITLE13=Til You Love Me (Vocals)
TTITLE14=They Asked About You (Vocals)
TTITLE15=Ring On Her Finger
EXTD=
EXTT0=
EXTT1=
EXTT2=
EXTT3=
EXTT4=
EXTT5=
EXTT6=
EXTT7=
EXTT8=
EXTT9=
EXTT10=
EXTT11=
EXTT12=
EXTT13=
EXTT14=
EXTT15=
PLAYORDER=
